<svg width="100" height="100" viewBox="0 0 100 100" fill="none" xmlns="http://www.w3.org/2000/svg">
<g id="ep:arrow-left-bold">
<path id="Vector" d="M33.0813 10.225C31.9096 11.397 31.2514 12.9865 31.2514 14.6437C31.2514 16.301 31.9096 17.8904 33.0813 19.0625L64.0188 50L33.0813 80.9375C31.9428 82.1163 31.3129 83.695 31.3271 85.3338C31.3413 86.9725 31.9986 88.5401 33.1574 89.6989C34.3162 90.8577 35.8838 91.515 37.5226 91.5292C39.1613 91.5435 40.7401 90.9135 41.9188 89.775L77.2751 54.4187C78.4468 53.2467 79.105 51.6573 79.105 50C79.105 48.3427 78.4468 46.7533 77.2751 45.5812L41.9188 10.225C40.7468 9.0533 39.1573 8.39508 37.5001 8.39508C35.8428 8.39508 34.2534 9.0533 33.0813 10.225Z" fill="url(#paint0_linear_41_196)"/>
</g>
<defs>
<linearGradient id="paint0_linear_41_196" x1="79.105" y1="49.9623" x2="31.2514" y2="49.9623" gradientUnits="userSpaceOnUse">
<stop stop-color="#FF0000"/>
<stop offset="1" stop-color="#FFD600"/>
</linearGradient>
</defs>
</svg>
