<svg width="100" height="100" viewBox="0 0 100 100" fill="none" xmlns="http://www.w3.org/2000/svg">
<g id="ep:arrow-left-bold">
<path id="Vector" d="M66.9187 10.225C68.0904 11.397 68.7486 12.9865 68.7486 14.6437C68.7486 16.301 68.0904 17.8904 66.9187 19.0625L35.9812 50L66.9187 80.9375C68.0572 82.1163 68.6871 83.695 68.6729 85.3338C68.6587 86.9725 68.0014 88.5401 66.8426 89.6989C65.6838 90.8577 64.1162 91.515 62.4774 91.5292C60.8387 91.5435 59.2599 90.9135 58.0812 89.775L22.7249 54.4187C21.5532 53.2467 20.895 51.6573 20.895 50C20.895 48.3427 21.5532 46.7533 22.7249 45.5812L58.0812 10.225C59.2532 9.0533 60.8427 8.39508 62.4999 8.39508C64.1572 8.39508 65.7466 9.0533 66.9187 10.225Z" fill="url(#paint0_linear_41_198)"/>
</g>
<defs>
<linearGradient id="paint0_linear_41_198" x1="20.895" y1="49.9623" x2="68.7486" y2="49.9623" gradientUnits="userSpaceOnUse">
<stop stop-color="#FF0000"/>
<stop offset="1" stop-color="#FFD600"/>
</linearGradient>
</defs>
</svg>
