<svg width="75" height="75" viewBox="0 0 75 75" fill="none" xmlns="http://www.w3.org/2000/svg">
<g id="Settings">
<path id="Vector" d="M37.5 48.4375C34.5992 48.4375 31.8172 47.2852 29.766 45.234C27.7148 43.1828 26.5625 40.4008 26.5625 37.5C26.5625 34.5992 27.7148 31.8172 29.766 29.766C31.8172 27.7148 34.5992 26.5625 37.5 26.5625C40.4008 26.5625 43.1828 27.7148 45.234 29.766C47.2851 31.8172 48.4375 34.5992 48.4375 37.5C48.4375 40.4008 47.2851 43.1828 45.234 45.234C43.1828 47.2852 40.4008 48.4375 37.5 48.4375ZM60.7187 40.5313C60.8437 39.5313 60.9375 38.5313 60.9375 37.5C60.9375 36.4688 60.8437 35.4375 60.7187 34.375L67.3125 29.2813C67.9062 28.8125 68.0625 27.9688 67.6875 27.2813L61.4375 16.4688C61.0625 15.7813 60.2187 15.5 59.5312 15.7813L51.75 18.9063C50.125 17.6875 48.4375 16.625 46.4687 15.8438L45.3125 7.56251C45.249 7.19443 45.0573 6.86072 44.7713 6.62048C44.4853 6.38024 44.1235 6.249 43.75 6.25001H31.25C30.4687 6.25001 29.8125 6.81251 29.6875 7.56251L28.5312 15.8438C26.5625 16.625 24.875 17.6875 23.25 18.9063L15.4687 15.7813C14.7812 15.5 13.9375 15.7813 13.5625 16.4688L7.31249 27.2813C6.90624 27.9688 7.09374 28.8125 7.68749 29.2813L14.2812 34.375C14.1562 35.4375 14.0625 36.4688 14.0625 37.5C14.0625 38.5313 14.1562 39.5313 14.2812 40.5313L7.68749 45.7188C7.09374 46.1875 6.90624 47.0313 7.31249 47.7188L13.5625 58.5313C13.9375 59.2188 14.7812 59.4688 15.4687 59.2188L23.25 56.0625C24.875 57.3125 26.5625 58.375 28.5312 59.1563L29.6875 67.4375C29.8125 68.1875 30.4687 68.75 31.25 68.75H43.75C44.5312 68.75 45.1875 68.1875 45.3125 67.4375L46.4687 59.1563C48.4375 58.3438 50.125 57.3125 51.75 56.0625L59.5312 59.2188C60.2187 59.4688 61.0625 59.2188 61.4375 58.5313L67.6875 47.7188C68.0625 47.0313 67.9062 46.1875 67.3125 45.7188L60.7187 40.5313Z" fill="white"/>
</g>
</svg>
